/* XPM */
static char *icon[] = {
/* columns rows colors chars-per-pixel */
"64 64 14 1 ",
"  c #2E1D1A",
". c #3E2723",
"X c #463029",
"o c #523931",
"O c #5B4036",
"+ c #5D4037",
"@ c #6D4C41",
"# c #795548",
"$ c #BF8000",
"% c #BF9300",
"& c #FFAB00",
"* c #FFA726",
"= c #FFC400",
"- c None",
/* pixels */
"----------------------------------------------------------------",
"----------------------------------------------------------------",
"------XXXXXXXXXXXXXXXXXXXXXX$$%%%%$$XXXXXXXXXXXXXXXXXXXXXX------",
"------XXXXXXXXXXXXXXXXXXXXXX$$%%%%$$XXXXXXXXXXXXXXXXXXXXXX------",
"----XX                                                    XX----",
"----XX                                                    XX----",
"--XX    XXXXooOOOOXXXXooOOOOooXXXXooOOOOooXXXXOOOOooXXXX    XX--",
"--XX    XXXXooOOOOXXXXooOOOOooXXXXooOOOOooXXXXOOOOooXXXX    XX--",
"--XX  XXXXooooOOOOXXXXooOOOOooXXXXooOOOOooXXXXOOOOooooXXXX  XX--",
"--XX  XXXXooooOOOOXXXXooOOOOooXXXXooOOOOooXXXXOOOOooooXXXX  XX--",
"--XX  XXXXooooOOOOXXXXooOOOOooXXXXooOOOOooXXXXOOOOooooXXXX  XX--",
"--XX  XXXXooooOOOOXXXXooOOOOooXXXXooOOOOooXXXXOOOOooooXXXX  XX--",
"--XX  XXXXooooOOOOXXXXooOOOOooXXXXooOOOOooXXXXOOOOooooXXXX  XX--",
"--XX  XXXXooooOOOOXXXXooOOOOooXXXXooOOOOooXXXXOOOOooooXXXX  XX--",
"--XX  XXXXooooOOOOXXXXooOOOOooXXXXooOOOOooXXXXOOOOooooXXXX  XX--",
"--XX  XXXXooooOOOOXXXXooOOOOooXXXXooOOOOooXXXXOOOOooooXXXX  XX--",
"--XX  XXXXooooOOOOXXXXooOOOOooXXXXooOOOOooXXXXOOOOooooXXXX  XX--",
"--XX  XXXXooooOOOOXXXXooOOOOooXXXXooOOOOooXXXXOOOOooooXXXX  XX--",
"--XX  XXXXooooOOOOXXXXooOOOOooXXXXooOOOOooXXXXOOOOooooXXXX  XX--",
"--XX  XXXXooooOOOOXXXXooOOOOooXXXXooOOOOooXXXXOOOOooooXXXX  XX--",
"--XX    XXooooOOOOXXXXooOOOOooXXXXooOOOOooXXXXOOOOooooXX    XX--",
"--XX    XXooooOOOOXXXXooOOOOooXXXXooOOOOooXXXXOOOOooooXX    XX--",
"----XX  XXXXooOOOOXXXXooOOOOooXXXXooOOOOooXXXXOOOOooXXXX  XX----",
"----XX  XXXXooOOOOXXXXooOOOOooXXXXooOOOOooXXXXOOOOooXXXX  XX----",
"------      ........................................      ------",
"------      ........................................      ------",
"--OO..++++@@####@@++++++@@##@@++++@@##@@++++++@@####@@++++..OO--",
"--OO..++++@@####@@++++++@@##@@++++@@##@@++++++@@####@@++++..OO--",
"--OO..++++@@####@@++++++@@##@@++++@@##@@++++++@@####@@++++..OO--",
"--OO..++++@@####@@++++++@@##@@++++@@##@@++++++@@####@@++++..OO--",
"--OO..++++@@####@@++++++@@##@@++++@@##@@++++++@@####@@++++..OO--",
"--OO..++++@@####@@++++++@@##@@++++@@##@@++++++@@####@@++++..OO--",
"--OO..++++@@####@@++++++@@&&&&++++&&&&@@++++++@@####@@++++..OO--",
"--OO..++++@@####@@++++++@@&&&&++++&&&&@@++++++@@####@@++++..OO--",
"--OO..++++@@####@@++++++@@&&&&====&&&&@@++++++@@####@@++++..OO--",
"--OO..++++@@####@@++++++@@&&&&====&&&&@@++++++@@####@@++++..OO--",
"--OO..++++@@####@@++++++@@##==****==##@@++++++@@####@@++++..OO--",
"--OO..++++@@####@@++++++@@##==****==##@@++++++@@####@@++++..OO--",
"--OO..++++@@####@@++++++@@##==****==##@@++++++@@####@@++++..OO--",
"--OO..++++@@####@@++++++@@##==****==##@@++++++@@####@@++++..OO--",
"--OO..++++@@####@@++++++@@&&&&====&&&&@@++++++@@####@@++++..OO--",
"--OO..++++@@####@@++++++@@&&&&====&&&&@@++++++@@####@@++++..OO--",
"--OO..++++@@####@@++++++@@&&&&++++&&&&@@++++++@@####@@++++..OO--",
"--OO..++++@@####@@++++++@@&&&&++++&&&&@@++++++@@####@@++++..OO--",
"--OO..++++@@####@@++++++@@##@@++++@@##@@++++++@@####@@++++..OO--",
"--OO..++++@@####@@++++++@@##@@++++@@##@@++++++@@####@@++++..OO--",
"--OO..++++@@####@@++++++@@##@@++++@@##@@++++++@@####@@++++..OO--",
"--OO..++++@@####@@++++++@@##@@++++@@##@@++++++@@####@@++++..OO--",
"--OO..++++@@####@@++++++@@##@@++++@@##@@++++++@@####@@++++..OO--",
"--OO..++++@@####@@++++++@@##@@++++@@##@@++++++@@####@@++++..OO--",
"--OO..++++@@####@@++++++@@##@@++++@@##@@++++++@@####@@++++..OO--",
"--OO..++++@@####@@++++++@@##@@++++@@##@@++++++@@####@@++++..OO--",
"--OOOO....................................................OOOO--",
"--OOOO....................................................OOOO--",
"----OOOOOOOOOOOOOOOOOOOOOOOOOOOOOOOOOOOOOOOOOOOOOOOOOOOOOOOO----",
"----OOOOOOOOOOOOOOOOOOOOOOOOOOOOOOOOOOOOOOOOOOOOOOOOOOOOOOOO----",
"----------------------------------------------------------------",
"----------------------------------------------------------------",
"----------------------------------------------------------------",
"----------------------------------------------------------------",
"----------------------------------------------------------------",
"----------------------------------------------------------------",
"----------------------------------------------------------------",
"----------------------------------------------------------------"
};
